<?xml version="1.0" encoding="UTF-8" standalone="no"?>
<!-- Created with Inkscape (http://www.inkscape.org/) -->

<svg
   xmlns:dc="http://purl.org/dc/elements/1.1/"
   xmlns:cc="http://creativecommons.org/ns#"
   xmlns:rdf="http://www.w3.org/1999/02/22-rdf-syntax-ns#"
   xmlns:svg="http://www.w3.org/2000/svg"
   xmlns="http://www.w3.org/2000/svg"
   xmlns:sodipodi="http://sodipodi.sourceforge.net/DTD/sodipodi-0.dtd"
   xmlns:inkscape="http://www.inkscape.org/namespaces/inkscape"
   width="256"
   height="256"
   viewBox="0 0 67.733332 67.733335"
   version="1.1"
   id="svg8"
   inkscape:version="0.92.3 (2405546, 2018-03-11)"
   sodipodi:docname="web_blabla_favicon.svg"
   inkscape:export-filename="/home/charli/Bis/Project/CardanCo/web_blabla/frontend/favi/web_blabla_favicon_64x64.png"
   inkscape:export-xdpi="24.000002"
   inkscape:export-ydpi="24.000002">
  <defs
     id="defs2" />
  <sodipodi:namedview
     id="base"
     pagecolor="#ffffff"
     bordercolor="#666666"
     borderopacity="1.0"
     inkscape:pageopacity="0.0"
     inkscape:pageshadow="2"
     inkscape:zoom="2.8"
     inkscape:cx="181.68306"
     inkscape:cy="129.3824"
     inkscape:document-units="mm"
     inkscape:current-layer="layer1"
     showgrid="false"
     units="px"
     inkscape:window-width="3066"
     inkscape:window-height="1689"
     inkscape:window-x="134"
     inkscape:window-y="55"
     inkscape:window-maximized="1" />
  <metadata
     id="metadata5">
    <rdf:RDF>
      <cc:Work
         rdf:about="">
        <dc:format>image/svg+xml</dc:format>
        <dc:type
           rdf:resource="http://purl.org/dc/dcmitype/StillImage" />
        <dc:title></dc:title>
      </cc:Work>
    </rdf:RDF>
  </metadata>
  <g
     inkscape:label="Layer 1"
     inkscape:groupmode="layer"
     id="layer1"
     transform="translate(0,-229.26665)">
    <path
       style="fill:#55d400;stroke:#55d400;stroke-width:0.26458332px;stroke-linecap:butt;stroke-linejoin:miter;stroke-opacity:1"
       d="m 4.6302083,232.08257 14.3630947,0.70871 -2.69308,25.70238 c 0,0 7.343277,-4.25562 11.103051,-3.35454 3.520422,0.84372 7.021533,3.9866 7.843006,7.51228 0.908955,3.90114 -1.211632,8.52766 -4.110492,11.29203 -2.148539,2.04886 -5.565631,3.06691 -8.504464,2.64584 -2.451617,-0.35126 -6.18936,-4.11049 -6.18936,-4.11049 l -0.425223,2.83482 c 0,0 -8.3154762,-0.23624 -8.3154762,-0.42522 0,-0.18899 -3.0710565,-42.80581 -3.0710565,-42.80581 z"
       id="path10"
       inkscape:connector-curvature="0"
       sodipodi:nodetypes="cccaaaaccsc" />
    <path
       style="fill:#ffffff;stroke:#ffffff;stroke-width:0.26458332px;stroke-linecap:butt;stroke-linejoin:miter;stroke-opacity:1"
       d="m 21.59189,261.80095 c 2.08543,-1.07899 4.992327,-2.08021 6.992558,-0.85045 2.325694,1.42986 3.293618,5.0185 2.787576,7.70127 -0.411649,2.18235 -2.279777,4.32827 -4.393973,5.00818 -2.185711,0.7029 -4.835399,-0.23222 -6.709078,-1.55915 -1.67575,-1.18676 -3.481789,-3.15118 -3.307292,-5.19717 0.195177,-2.28846 2.590309,-4.04725 4.630209,-5.10268 z"
       id="path12"
       inkscape:connector-curvature="0"
       sodipodi:nodetypes="aaaaaaa" />
    <path
       style="fill:#55d400;stroke:#55d400;stroke-width:0.26458332px;stroke-linecap:butt;stroke-linejoin:miter;stroke-opacity:1"
       d="m 38.27009,276.02231 -4.063246,-43.27828 12.992933,-0.0945 c 0,0 -2.902981,13.5156 -3.779763,20.36346 -0.984558,7.68961 -1.653646,23.19829 -1.653646,23.19829 z"
       id="path14"
       inkscape:connector-curvature="0"
       sodipodi:nodetypes="cccacc" />
    <path
       style="fill:#55d400;stroke:#55d400;stroke-width:0.26458332px;stroke-linecap:butt;stroke-linejoin:miter;stroke-opacity:1"
       d="m 58.115891,264.39954 v -2.97657 l 3.683216,0.18899 -0.58464,14.88281 -3.507821,0.0945 -0.05847,-1.93713 c 0,0 -3.302528,1.38886 -5.027882,1.27567 -1.612043,-0.10575 -3.311319,-0.70322 -4.501707,-1.79539 -1.31163,-1.20341 -2.421705,-2.99207 -2.39701,-4.77195 0.03026,-2.18119 1.562264,-4.21551 3.098576,-5.76413 0.923348,-0.93075 2.147928,-1.73135 3.449362,-1.88988 1.160657,-0.14138 2.335565,0.39431 3.390894,0.89769 0.915169,0.43653 2.455482,1.79539 2.455482,1.79539 z"
       id="path16"
       inkscape:connector-curvature="0"
       sodipodi:nodetypes="ccccccaaaaaac" />
    <path
       style="fill:#ffffff;stroke:#ffffff;stroke-width:0.26458332px;stroke-linecap:butt;stroke-linejoin:miter;stroke-opacity:1"
       d="m 51.451027,264.87201 c 0.854185,-0.525 1.932133,-0.86059 2.923187,-0.70871 1.38822,0.21274 3.609459,2.17337 3.609459,2.17337 l -0.157719,6.80357 c 0,0 -3.294581,1.27077 -4.971798,1.03943 -1.317046,-0.18166 -2.641312,-0.86047 -3.537397,-1.84264 -0.814377,-0.8926 -1.564756,-2.16147 -1.373556,-3.35453 0.285034,-1.77857 1.973237,-3.16731 3.507824,-4.11049 z"
       id="path18"
       inkscape:connector-curvature="0"
       sodipodi:nodetypes="aaccaaaa" />
    <path
       style="fill:#afe9af;stroke:#afe9af;stroke-width:0.26458332px;stroke-linecap:butt;stroke-linejoin:miter;stroke-opacity:1"
       d="m 4.6801381,295.86662 14.3630949,-0.2831 -2.69308,-10.26684 c 0,0 7.343277,1.69991 11.103051,1.33998 3.520422,-0.33703 7.021534,-1.59245 7.843007,-3.00079 0.908955,-1.55832 -1.211633,-3.40638 -4.110493,-4.51061 -2.148539,-0.81842 -5.565631,-1.22508 -8.504464,-1.05689 -2.451617,0.14031 -6.18936,1.64194 -6.18936,1.64194 l -0.425223,-1.13237 c 0,0 -8.3154759,0.0944 -8.3154759,0.16985 0,0.0755 -3.071057,17.09883 -3.071057,17.09883 z"
       id="path10-3"
       inkscape:connector-curvature="0"
       sodipodi:nodetypes="cccaaaaccsc" />
    <path
       style="fill:#ffffff;stroke:#ffffff;stroke-width:0.26458332px;stroke-linecap:butt;stroke-linejoin:miter;stroke-opacity:1"
       d="m 21.64182,283.99558 c 2.08543,0.43101 4.992327,0.83094 6.992558,0.33971 2.325694,-0.57115 3.293618,-2.00464 2.787576,-3.07628 -0.411649,-0.87174 -2.279777,-1.72893 -4.393973,-2.00052 -2.185711,-0.28077 -4.835399,0.0928 -6.709078,0.62281 -1.67575,0.47405 -3.481789,1.25874 -3.307292,2.07601 0.195177,0.91413 2.590309,1.61668 4.630209,2.03827 z"
       id="path12-6"
       inkscape:connector-curvature="0"
       sodipodi:nodetypes="aaaaaaa" />
    <path
       style="fill:#afe9af;stroke:#afe9af;stroke-width:0.26458332px;stroke-linecap:butt;stroke-linejoin:miter;stroke-opacity:1"
       d="m 38.32002,278.31485 -4.063246,17.28755 12.992933,0.0378 c 0,0 -2.902982,-5.39882 -3.779763,-8.13421 -0.984557,-3.07162 -1.653646,-9.26658 -1.653646,-9.26658 z"
       id="path14-7"
       inkscape:connector-curvature="0"
       sodipodi:nodetypes="cccacc" />
    <path
       style="fill:#afe9af;stroke:#afe9af;stroke-width:0.26458332px;stroke-linecap:butt;stroke-linejoin:miter;stroke-opacity:1"
       d="m 58.16582,282.95757 v 1.189 l 3.683217,-0.0755 -0.584639,-5.94495 -3.507822,-0.0378 -0.05847,0.77379 c 0,0 -3.302527,-0.55478 -5.027883,-0.50957 -1.612042,0.0422 -3.311318,0.28091 -4.501705,0.71717 -1.311632,0.48071 -2.421705,1.19519 -2.397011,1.90616 0.03026,0.87128 1.562264,1.68389 3.098575,2.30249 0.923348,0.37179 2.14793,0.69159 3.449362,0.75492 1.160658,0.0565 2.335567,-0.15751 3.390895,-0.35859 0.91517,-0.17437 2.455481,-0.71717 2.455481,-0.71717 z"
       id="path16-5"
       inkscape:connector-curvature="0"
       sodipodi:nodetypes="ccccccaaaaaac" />
    <path
       style="fill:#ffffff;stroke:#ffffff;stroke-width:0.26458332px;stroke-linecap:butt;stroke-linejoin:miter;stroke-opacity:1"
       d="m 51.500958,282.76884 c 0.854184,0.20972 1.932133,0.34377 2.923186,0.2831 1.388221,-0.085 3.609459,-0.86816 3.609459,-0.86816 l -0.157718,-2.71769 c 0,0 -3.294581,-0.50761 -4.971799,-0.4152 -1.317046,0.0726 -2.641312,0.34372 -3.537397,0.73604 -0.814377,0.35655 -1.564757,0.86341 -1.373555,1.33997 0.285033,0.71046 1.973236,1.26519 3.507824,1.64194 z"
       id="path18-3"
       inkscape:connector-curvature="0"
       sodipodi:nodetypes="aaccaaaa" />
  </g>
</svg>
