<?xml version="1.0" encoding="UTF-8" standalone="no"?>
<!-- Created with Inkscape (http://www.inkscape.org/) -->

<svg
   xmlns:dc="http://purl.org/dc/elements/1.1/"
   xmlns:cc="http://creativecommons.org/ns#"
   xmlns:rdf="http://www.w3.org/1999/02/22-rdf-syntax-ns#"
   xmlns:svg="http://www.w3.org/2000/svg"
   xmlns="http://www.w3.org/2000/svg"
   xmlns:sodipodi="http://sodipodi.sourceforge.net/DTD/sodipodi-0.dtd"
   xmlns:inkscape="http://www.inkscape.org/namespaces/inkscape"
   width="300"
   height="100"
   viewBox="0 0 79.374998 26.458334"
   version="1.1"
   id="svg8"
   inkscape:version="0.92.3 (2405546, 2018-03-11)"
   sodipodi:docname="logo_web_blabla.svg">
  <defs
     id="defs2" />
  <sodipodi:namedview
     id="base"
     pagecolor="#ffffff"
     bordercolor="#666666"
     borderopacity="1.0"
     inkscape:pageopacity="0.0"
     inkscape:pageshadow="2"
     inkscape:zoom="3.959798"
     inkscape:cx="157.9277"
     inkscape:cy="22.552566"
     inkscape:document-units="mm"
     inkscape:current-layer="layer1"
     showgrid="false"
     units="px"
     inkscape:window-width="3066"
     inkscape:window-height="1689"
     inkscape:window-x="134"
     inkscape:window-y="55"
     inkscape:window-maximized="1" />
  <metadata
     id="metadata5">
    <rdf:RDF>
      <cc:Work
         rdf:about="">
        <dc:format>image/svg+xml</dc:format>
        <dc:type
           rdf:resource="http://purl.org/dc/dcmitype/StillImage" />
        <dc:title></dc:title>
      </cc:Work>
    </rdf:RDF>
  </metadata>
  <g
     inkscape:label="Layer 1"
     inkscape:groupmode="layer"
     id="layer1"
     transform="translate(0,-270.54165)">
    <path
       style="fill:#cccccc;stroke:#cccccc;stroke-width:0.26458332px;stroke-linecap:butt;stroke-linejoin:miter;stroke-opacity:1"
       d="m 18.775685,290.21373 3.775182,0.0498 c 0,0 0.592095,-1.02001 0.601356,-1.64414 0.01289,-0.8688 -0.398646,-1.67004 -0.7684,-2.34168 -0.373114,-0.67776 -0.850132,-1.2964 -1.403165,-1.59434 -0.744303,-0.40097 -1.657885,-0.65802 -2.372017,-0.14946 -0.675318,0.48092 -1.092599,1.63523 -1.336347,2.69043 -0.279385,1.20945 -0.246788,2.58561 -0.06682,3.83636 0.140031,0.9732 0.358773,2.04811 0.868626,2.69043 0.460401,0.58004 1.134868,0.71846 1.737252,0.74735 0.569832,0.0273 1.176433,-0.12363 1.670434,-0.54805 0.314158,-0.26992 0.734991,-1.19575 0.734991,-1.19575 l -0.935443,-0.79717 c 0,0 -0.551583,0.94771 -0.935443,1.09611 -0.272924,0.10558 -0.575645,-0.0352 -0.835217,-0.19929 -0.256312,-0.16209 -0.537164,-0.381 -0.668174,-0.74734 -0.199411,-0.55762 -0.06682,-1.89327 -0.06682,-1.89327 z"
       id="path14"
       inkscape:connector-curvature="0"
       sodipodi:nodetypes="ccaaaaaaaaaccaaacc" />
    <path
       style="fill:#cccccc;stroke:#cccccc;stroke-width:0.26458332px;stroke-linecap:butt;stroke-linejoin:miter;stroke-opacity:1"
       d="m 1.1693041,274.71881 5.0113036,-0.24911 2.8397388,13.20305 2.0045215,-8.02148 1.503391,7.67273 1.971113,-13.75112 5.311982,0.54806 -6.447877,20.9256 -2.204974,-9.16741 -1.6704345,9.41652 H 6.6483294 Z"
       id="path10"
       inkscape:connector-curvature="0" />
    <path
       style="fill:#ffffff;stroke:#ffffff;stroke-width:0.26458332px;stroke-linecap:butt;stroke-linejoin:miter;stroke-opacity:1"
       d="m 18.708867,288.4201 3.0736,0.0996 c 0,0 -0.489655,-1.63672 -0.968852,-2.09256 -0.390512,-0.37147 -0.959326,-0.66893 -1.369757,-0.34876 -0.512079,0.39948 -0.734991,2.3417 -0.734991,2.3417 z"
       id="path12"
       inkscape:connector-curvature="0"
       sodipodi:nodetypes="ccaac" />
    <path
       style="fill:#cccccc;stroke:#cccccc;stroke-width:0.26458332px;stroke-linecap:butt;stroke-linejoin:miter;stroke-opacity:1"
       d="m 22.083146,275.01774 3.975634,-0.24912 0.167042,12.35608 c 0,0 1.222256,-1.29861 1.937705,-1.44486 0.696743,-0.14243 1.532726,-0.0765 2.071338,0.59786 0.620921,0.77741 0.956392,2.186 0.868627,3.38796 -0.114019,1.56148 -0.851197,3.08684 -1.737251,3.93601 -0.673099,0.64508 -2.372019,0.54804 -2.372019,0.54804 l -0.634764,-1.84344 -0.06682,1.69398 -1.637025,0.19929 c 0,0 -0.176417,-7.9862 -0.7684,-11.85785 -0.38772,-2.53574 -1.804067,-7.32395 -1.804067,-7.32395 z"
       id="path16"
       inkscape:connector-curvature="0"
       sodipodi:nodetypes="cccaaaaccccac" />
    <path
       style="fill:#ffffff;stroke:#ffffff;stroke-width:0.26458332px;stroke-linecap:butt;stroke-linejoin:miter;stroke-opacity:1"
       d="m 26.593318,289.06779 c 0.153731,-0.7219 0.714333,-1.18713 1.202713,-1.39505 0.613753,-0.26129 1.455216,-0.37745 1.904297,0.29895 0.330571,0.4979 0.282772,1.42811 0.133633,2.09255 -0.225185,1.00324 -0.752949,2.05906 -1.436574,2.34168 -0.414243,0.17125 -0.931287,-0.096 -1.23612,-0.54806 -0.462166,-0.68527 -0.765218,-1.86373 -0.567949,-2.79007 z"
       id="path18"
       inkscape:connector-curvature="0"
       sodipodi:nodetypes="aaaaaaa" />
    <path
       style="fill:#ffd5d5;stroke:#ffd5d5;stroke-width:0.26458332px;stroke-linecap:butt;stroke-linejoin:miter;stroke-opacity:1"
       d="m 31.583813,271.06079 5.91992,0.39973 -1.109986,14.49686 c 0,0 3.026619,-2.40028 4.576254,-1.89204 1.450983,0.47588 2.894008,2.24853 3.232587,4.23712 0.374638,2.20035 -0.499388,4.80983 -1.694187,6.36902 -0.885546,1.15562 -2.293941,1.72982 -3.505215,1.49233 -1.010463,-0.19812 -2.551018,-2.31844 -2.551018,-2.31844 l -0.175261,1.59892 c 0,0 -3.427321,-0.13332 -3.427321,-0.23985 0,-0.10662 -1.265773,-24.14365 -1.265773,-24.14365 z"
       id="path10-3"
       inkscape:connector-curvature="0"
       sodipodi:nodetypes="cccaaaaccsc" />
    <path
       style="fill:#ffffff;stroke:#ffffff;stroke-width:0.26458332px;stroke-linecap:butt;stroke-linejoin:miter;stroke-opacity:1"
       d="m 38.57477,287.82278 c 0.859535,-0.60858 2.057647,-1.17329 2.882066,-0.47967 0.958562,0.80648 1.357503,2.83056 1.148932,4.34373 -0.169666,1.2309 -0.939637,2.44125 -1.811028,2.82474 -0.900867,0.39645 -1.992966,-0.13094 -2.765225,-0.8794 -0.69068,-0.66936 -1.435061,-1.77735 -1.363139,-2.93134 0.08044,-1.29076 1.067626,-2.28276 1.908394,-2.87806 z"
       id="path12-6"
       inkscape:connector-curvature="0"
       sodipodi:nodetypes="aaaaaaa" />
    <path
       style="fill:#ffd5d5;stroke:#ffd5d5;stroke-width:0.26458332px;stroke-linecap:butt;stroke-linejoin:miter;stroke-opacity:1"
       d="m 45.448887,295.84401 -1.674715,-24.41014 5.355191,-0.0534 c 0,0 -1.196498,7.62317 -1.557874,11.48556 -0.405797,4.33716 -0.681569,13.08448 -0.681569,13.08448 z"
       id="path14-7"
       inkscape:connector-curvature="0"
       sodipodi:nodetypes="cccacc" />
    <path
       style="fill:#ffd5d5;stroke:#ffd5d5;stroke-width:0.26458332px;stroke-linecap:butt;stroke-linejoin:miter;stroke-opacity:1"
       d="m 53.628567,289.28846 v -1.67886 l 1.518082,0.10663 -0.240966,8.39431 -1.44579,0.0534 -0.0241,-1.0926 c 0,0 -1.361175,0.78336 -2.072301,0.71951 -0.664422,-0.0596 -1.364799,-0.39663 -1.855431,-1.01264 -0.540604,-0.67876 -0.998134,-1.68762 -0.987956,-2.69151 0.01247,-1.23026 0.643906,-2.37767 1.277114,-3.25114 0.380569,-0.52496 0.885295,-0.97653 1.421695,-1.06594 0.478379,-0.0798 0.962632,0.22239 1.397598,0.50632 0.377198,0.24622 1.012055,1.01265 1.012055,1.01265 z"
       id="path16-5"
       inkscape:connector-curvature="0"
       sodipodi:nodetypes="ccccccaaaaaac" />
    <path
       style="fill:#ffffff;stroke:#ffffff;stroke-width:0.26458332px;stroke-linecap:butt;stroke-linejoin:miter;stroke-opacity:1"
       d="m 50.881566,289.55494 c 0.352062,-0.29611 0.796351,-0.48539 1.204826,-0.39973 0.572171,0.1199 1.487681,1.22585 1.487681,1.22585 l -0.06501,3.83739 c 0,0 -1.3579,0.71675 -2.049185,0.58628 -0.542836,-0.10246 -1.088648,-0.48534 -1.45798,-1.03931 -0.335656,-0.50346 -0.644933,-1.21912 -0.566127,-1.89205 0.117479,-1.00315 0.813292,-1.78645 1.445791,-2.31843 z"
       id="path18-3"
       inkscape:connector-curvature="0"
       sodipodi:nodetypes="aaccaaaa" />
    <path
       style="fill:#55d400;stroke:#55d400;stroke-width:0.26458332px;stroke-linecap:butt;stroke-linejoin:miter;stroke-opacity:1"
       d="m 55.105684,271.66163 5.91992,0.39973 -1.109986,14.49686 c 0,0 3.026619,-2.40029 4.576254,-1.89205 1.450983,0.47588 2.894008,2.24853 3.232588,4.23713 0.374637,2.20034 -0.499389,4.80983 -1.694188,6.36901 -0.885545,1.15562 -2.293941,1.72983 -3.505215,1.49233 -1.010463,-0.19812 -2.551018,-2.31844 -2.551018,-2.31844 l -0.175261,1.59893 c 0,0 -3.427321,-0.13332 -3.427321,-0.23985 0,-0.10663 -1.265773,-24.14365 -1.265773,-24.14365 z"
       id="path10-3-5"
       inkscape:connector-curvature="0"
       sodipodi:nodetypes="cccaaaaccsc" />
    <path
       style="fill:#ffffff;stroke:#ffffff;stroke-width:0.26458332px;stroke-linecap:butt;stroke-linejoin:miter;stroke-opacity:1"
       d="m 62.096641,288.42362 c 0.859535,-0.60858 2.057647,-1.1733 2.882066,-0.47967 0.958562,0.80647 1.357503,2.83056 1.148933,4.34372 -0.169667,1.2309 -0.939637,2.44125 -1.811029,2.82475 -0.900867,0.39645 -1.992966,-0.13094 -2.765225,-0.8794 -0.69068,-0.66936 -1.435061,-1.77735 -1.363139,-2.93135 0.08044,-1.29076 1.067626,-2.28275 1.908394,-2.87805 z"
       id="path12-6-6"
       inkscape:connector-curvature="0"
       sodipodi:nodetypes="aaaaaaa" />
    <path
       style="fill:#55d400;stroke:#55d400;stroke-width:0.26458332px;stroke-linecap:butt;stroke-linejoin:miter;stroke-opacity:1"
       d="m 68.970758,296.44485 -1.674714,-24.41014 5.355191,-0.0534 c 0,0 -1.196498,7.62317 -1.557875,11.48555 -0.405797,4.33716 -0.681569,13.08449 -0.681569,13.08449 z"
       id="path14-7-2"
       inkscape:connector-curvature="0"
       sodipodi:nodetypes="cccacc" />
    <path
       style="fill:#55d400;stroke:#55d400;stroke-width:0.26458332px;stroke-linecap:butt;stroke-linejoin:miter;stroke-opacity:1"
       d="m 77.150439,289.88929 v -1.67886 l 1.518081,0.10663 -0.240965,8.39431 -1.44579,0.0534 -0.0241,-1.09259 c 0,0 -1.361175,0.78335 -2.072301,0.71951 -0.664422,-0.0597 -1.364799,-0.39663 -1.855431,-1.01265 -0.540604,-0.67875 -0.998134,-1.68761 -0.987956,-2.69151 0.01247,-1.23026 0.643906,-2.37766 1.277114,-3.25114 0.380569,-0.52495 0.885295,-0.97653 1.421695,-1.06593 0.478379,-0.0798 0.962632,0.22239 1.397598,0.50632 0.377198,0.24621 1.012055,1.01264 1.012055,1.01264 z"
       id="path16-5-9"
       inkscape:connector-curvature="0"
       sodipodi:nodetypes="ccccccaaaaaac" />
    <path
       style="fill:#ffffff;stroke:#ffffff;stroke-width:0.26458332px;stroke-linecap:butt;stroke-linejoin:miter;stroke-opacity:1"
       d="m 74.403437,290.15578 c 0.352063,-0.29612 0.796352,-0.4854 1.204827,-0.39973 0.572171,0.1199 1.487681,1.22584 1.487681,1.22584 l -0.06501,3.83739 c 0,0 -1.357901,0.71676 -2.049185,0.58628 -0.542836,-0.10245 -1.088649,-0.48533 -1.45798,-1.03931 -0.335656,-0.50345 -0.644933,-1.21912 -0.566128,-1.89204 0.117479,-1.00315 0.813293,-1.78645 1.445791,-2.31843 z"
       id="path18-3-1"
       inkscape:connector-curvature="0"
       sodipodi:nodetypes="aaccaaaa" />
  </g>
</svg>
